<svg width="128" height="128" viewBox="0 0 128 128" fill="none" xmlns="http://www.w3.org/2000/svg">
<rect width="128" height="128" fill="#DDFFFF"/>
<path d="M95.875 21.5H32.125C26.2646 21.5 21.5 26.2644 21.5 32.1244V79.9341C21.5 85.7941 26.2646 90.5585 32.125 90.5585H48.0625V104.503C48.0625 106.13 49.9219 107.076 51.2334 106.113L71.9688 90.5585H95.875C101.735 90.5585 106.5 85.7941 106.5 79.9341V32.1244C106.5 26.2644 101.735 21.5 95.875 21.5ZM82.9424 48.6918L61.1943 70.2725C60.4805 70.9864 59.3184 70.9864 58.6045 70.2559L46.0371 57.5897C45.3232 56.8759 45.3398 55.7138 46.0537 55L50.3701 50.717C51.084 50.0032 52.2461 50.0198 52.96 50.7336L59.9492 57.7889L76.0859 41.7859C76.7998 41.0721 77.9619 41.0887 78.6758 41.8025L82.959 46.1187C83.6563 46.8325 83.6562 47.9945 82.9424 48.6918Z" fill="#0B485B"/>
</svg>
